<svg xmlns="http://www.w3.org/2000/svg" width="431.745" height="200" viewBox="-179.039 -82.902 431.745 200"><g fill="#006FB7"><path d="M-37.457 44.637c.728.756 10.145 10.749 10.145 10.749 5.945 6.269 12.099 12.755 18.359 19.711l.095.104.647-.166-.014-11.981.037-6.464-.006-2.304c-.006-4.584-.017-8.537.281-11.139l.069-.63c.353-3.243.542-5.02 3.576-5.547l.18-.028v-.877h-12.884v.848l.181.034c5.452 1.112 6.79 2.677 6.841 7.965l.066 4.184s-.028 15.207-.028 16.256l-.006-.006c-9.443-9.901-27.398-28.73-27.756-29.188.008-.006.008-.012.008-.023 0-.068-.507-.068-7.847-.068h-.221v.848l.164.04c6.337 1.599 6.601 4.006 6.601 9.3v8.4l.017 5.685c0 8.611-.533 12.193-5.931 12.915l-.201.022v.859h14.205v-.848l-.175-.034c-5.873-1.353-6.426-3.381-6.426-12.239l.023-6.085V44.637zM36.961 35.389c-10.827 0-18.394 8.079-18.394 19.659 0 11.82 7.409 19.763 18.445 19.763 10.858 0 18.445-8.103 18.445-19.711.001-9.094-4.841-19.711-18.496-19.711zm.656 38.069c-8.572 0-13.202-10.188-13.202-19.757 0-8.171 3.796-16.967 12.147-16.967 7.979 0 12.895 9.827 13.05 19.316.001 8.654-4.119 17.408-11.995 17.408zM-146.819 53.037l.198.023c6.913.963 8.263 1.902 8.263 10.509v1.559c0 5.071-2.957 7.438-9.294 7.438-13.683 0-23.616-11.254-23.616-26.771 0-13.58 7.95-23.075 19.338-23.075 8.091 0 13.801 5.221 15.66 14.331l.034.184h.699l.275-13.145-.146-.058c-5.223-1.902-10.721-2.911-15.901-2.911-13.442 0-27.73 9.639-27.73 27.516 0 15.477 10.778 26.289 26.209 26.289 5.905 0 13.062-1.615 20.149-4.561l.14-.046.038-2.579v-6.623c0-4.63.203-6.899 4.862-8.022l.178-.04v-.951h-19.356v.933zM-71.852 63.225c-1.26 6.796-4.354 9.558-10.686 9.558-2.985 0-5.011-.591-6.206-1.8-1.221-1.243-1.367-2.962-1.367-4.584 0-.264 0-.526.006-.79l.005-.723v-9.174h3.948c3.455 0 6.443 0 7.162 4.785l.032.194h.762V48.207h-.762l-.023.2c-.616 4.584-3.487 4.951-7.171 4.951H-90.1V37.406h5.343c4.753 0 9.652 0 10.099 7.064l.017.213h.774l.143-8.618h-26.621v.848l.187.029c5.469.854 5.498 2.332 5.598 7.236l.023 1.071v19.706l-.023 1.065c-.106 4.905-.129 6.389-5.598 7.243l-.187.022v.848h27.564l.049-.16c1.092-3.655 1.596-6.956 1.653-10.692l.005-.229h-.745l-.033.173zM192.816 63.225c-1.249 6.796-4.344 9.558-10.681 9.558-2.979 0-5.008-.591-6.211-1.8-1.215-1.243-1.358-2.962-1.358-4.584 0-.264 0-.526.006-.79l.006-.723v-9.174h3.947c3.599 0 6.441 0 7.163 4.785l.034.194h.768V48.207h-.768l-.034.2c-.607 4.584-3.473 4.951-7.163 4.951h-3.947V37.406h5.334c4.751 0 9.661 0 10.114 7.064l.017.213h.768l.144-8.618h-26.621v.848l.188.029c5.467.854 5.501 2.332 5.593 7.236l.034 1.071v19.706l-.034 1.06c-.104 4.911-.126 6.395-5.593 7.249l-.188.022v.848h27.572l.046-.16c1.083-3.667 1.587-6.968 1.645-10.692l.012-.229h-.757l-.036.172zM125.249 36.065v.848l.188.029c5.483.854 5.507 2.332 5.604 7.248l.022 1.06v19.706l-.022 1.06c-.098 4.911-.121 6.395-5.604 7.249l-.188.022v.848h16.072v-.848l-.195-.022c-5.472-.854-5.506-2.332-5.598-7.249l-.023-1.06V45.245l.023-1.055c.103-4.916.126-6.395 5.598-7.243l.195-.028v-.854h-16.072zM106.477 63.827c-3.69 6.796-5.065 9.334-12.566 8.738l-6.303-.516c-.602-2.682-.602-5.604-.602-8.44V44.086c0-4.87.24-6.314 5.627-7.145l.194-.029v-.848H76.755v.848l.189.029c5.472.854 5.506 2.332 5.604 7.236l.034 1.071v19.706l-.034 1.065c-.104 4.911-.132 6.389-5.604 7.243l-.189.022v.848h27.739l2.864-10.417-.642-.332-.239.444zM252.522 73.745c-8.079-1.993-12.835-11.242-16.651-18.69l-.154-.304c.017.062-.144-.206-.27-.419 4.274-2.108 6.246-5.019 6.246-9.179 0-1.335-.688-3.559-2.613-5.421-1.896-1.834-5.661-3.954-12.823-3.701l-11.833-.012v.791l.201.022c5.512.59 5.689 2.154 5.689 10.389v17.826c-.144 5.523-.189 7.386-6.045 8.297l-.195.028v.843h17.23v-.843l-.195-.028c-6.618-1.043-6.801-2.108-6.801-8.309v-9.014l2.596.247c2.67.126 4.979.24 6.48 3.725 1.02 2.337 3.655 7.322 7.002 11.201 2.642 3.043 6.017 3.187 10.687 3.398l1.501.08.132-.733-.184-.194zm-28.226-18.68V37.206c3.048-.029 7.231.864 9.879 3.478 1.547 1.524 2.326 3.438 2.326 5.649 0 6.251-7.483 8.675-12.205 8.732zM60.901 4.031h145.214v1.45H60.901zM-132.446 4.031H-1.453v1.45h-130.993zM-23.522 103.3c0 2.572 1.874 6.939 8.878 6.939 6.449 0 8.813-3.353 9.821-4.773l.095-.138-.828-.252c-.985 1.215-3.269 4.32-8.689 4.32-1.602 0-3.349-.493-4.154-1.157-.951-.768-1.519-2.108-1.519-3.581 0-2.596 1.115-6.842 2.922-9.186 1.479-1.971 3.685-2.968 6.546-2.968 4.232 0 5.745 2.642 5.745 5.116l-.146 1.037.089.138h.739c.679-2.51.925-3.649.925-5.02-2.14-1.369-4.733-2.068-7.346-2.068-7.368-.004-13.078 6.23-13.078 11.593zM1.991 92.906l-.052.138.281.023c1.802.148 2.71.396 2.71.733 0 .47-.974 2.762-1.292 3.512l-.086.207-.284.636c-1.049 2.355-4.234 9.534-4.234 10.738 0 .813 1.177 1.237 2.341 1.237 2.547 0 4.512-1.994 5.24-2.854-.029-.172-.564-.493-.564-.493-.785.607-2.676 2.373-3.756 2.373-.556 0-.879-.241-.879-.653 0-.733 1.263-3.53 3.326-8.183 2.3-5.174 2.541-5.741 3.128-7.575l.046-.148-5.65-.241c-.1.074-.275.55-.275.55zM17.808 107.077c-1.607 1.295-3.103 1.988-3.753 1.988-.418 0-.951-.321-.951-.653 0-.653 1.16-3.129 2.1-5.123.874-1.856 1.41-3.008 1.41-3.306v-.476c-.118-.115-1.252-.161-1.252-.161l-1.244-.046h-2.653c-.109.081-.287.643-.287.643l-.046.148h1.221c.851 0 1.478.218 1.478.413 0 .252-.582 1.535-1.191 2.894-.974 2.137-2.072 4.578-2.072 5.415 0 .492.281 1.329 2.201 1.329 1.965 0 3.913-.871 5.615-2.521-.006-.161-.576-.544-.576-.544zM17.358 92.476c-.676 0-1.427.511-1.427 1.232 0 .688.65 1.237 1.461 1.237s1.461-.55 1.461-1.237c.001-.595-.526-1.232-1.495-1.232zM32.936 109.179c-.324 0-.562-.355-.562-.596 0-.344.607-1.748 1.232-2.842.556-1.009 1.854-3.479 1.854-4.665 0-.618-.247-2.068-2.496-2.068-2.34 0-4.492 1.49-6.283 2.951.868-1.931.934-2.148.934-2.452 0-.499-.542-.499-.722-.499l-1.034.058-1.097.086h-1.911c-.112.074-.324.607-.324.607l-.06.148 1.616.035c.47.046.851.12.851.39 0 .344-.868 2.292-1.158 2.876l-2.733 6.584h2.234c1.842-4.532 2.43-5.896 4.43-7.569 1.315-1.089 3.329-2.246 4.478-2.246a.87.87 0 0 1 .879.859c0 .756-.699 2.097-1.255 3.175l-.229.44c-.559 1.106-1.601 3.187-1.601 4.224 0 1.467 1.472 1.467 2.031 1.467 2.421 0 3.79-1.146 5.08-2.43l.111-.109-.699-.372c-.908.745-2.398 1.948-3.566 1.948zM47.974 107.077c-1.616 1.295-3.095 1.988-3.759 1.988-.413 0-.946-.321-.946-.653 0-.653 1.164-3.129 2.104-5.123.865-1.856 1.403-3.008 1.403-3.306v-.476c-.12-.115-1.249-.161-1.249-.161l-1.243-.046h-2.659c-.103.081-.28.643-.28.643l-.052.148h1.215c.859 0 1.49.218 1.49.413 0 .252-.585 1.535-1.198 2.894-.968 2.137-2.068 4.578-2.068 5.415 0 .492.286 1.329 2.2 1.329 1.972 0 3.908-.871 5.615-2.521-.001-.161-.573-.544-.573-.544zM47.515 92.476c-.664 0-1.421.511-1.421 1.232 0 .688.659 1.237 1.455 1.237.814 0 1.468-.55 1.468-1.237 0-.595-.527-1.232-1.502-1.232zM62.975 100.762c-.975-1.238-2.372-1.72-3.393-1.72-4.309 0-8.377 4.659-8.377 8.274 0 1.45 1.271 3.014 4.051 3.014 2.058 0 3.363-.802 4.28-1.501-.132.012-3.507 8.119-3.507 8.119l-.068.149h2.097c.104-.069 7.873-17.637 7.873-17.637l.069-.154h-1.982c-.081.052-.883 1.215-1.043 1.456zm-7.467 8.657c-1.18 0-1.977-.796-1.977-1.541 0-1.948 3.427-7.993 6.452-7.993 1.054 0 1.908.939 1.908 2.08.001.98-1.197 7.454-6.383 7.454zM84.497 107.219c-1.673 1.238-2.876 1.938-3.438 1.938-.446 0-.733-.275-.733-.711 0-.939 1.524-4.045 2.625-6.314.768-1.57 1.163-2.396 1.163-2.59 0-.286-.373-.413-.567-.413h-1.071c-.201 0-.573.098-.705.355 0 .006-1.387 2.934-1.387 2.934-1.191 2.533-2.83 4.476-4.854 5.776-1.553.997-2.768 1.226-2.916 1.226-.298 0-.739-.206-.739-.63 0-.441.67-2.567 1.479-4.274l1.449-3.129c.258-.516.677-1.455.722-2.028-.114-.12-5.116.023-5.116.023-.109.08-.292.584-.292.584l-.046.149 1.547.022c.206 0 .882.166.882.396 0 .218-.366 1.105-.578 1.587l-1.794 4.28c-.034.063-.647 1.519-.647 2.264 0 1.009.889 1.593 2.453 1.593 2.383 0 3.679-.939 6.079-2.762-.028.315-.092.963-.092.963 0 1.329 1.101 1.799 2.034 1.799 1.874 0 3.547-1.203 5.071-2.51-.002-.166-.529-.528-.529-.528zM96.822 98.9c-4.652 0-9.06 3.907-9.06 8.033 0 2.16 1.479 3.397 4.058 3.397 2.859 0 5.076-1.449 6.876-2.87l.108-.08-.602-.562c-2.768 2.051-4.744 2.36-5.685 2.36-1.771 0-2.154-1.621-2.154-2.246l.109-.963c.028.046 5.397-1.982 5.397-1.982 3.363-1.479 4.04-2.406 4.04-3.415.002-1.134-1.007-1.672-3.087-1.672zm-6.229 6.194c.218-.94.699-2.757 2.292-4.074.939-.785 2.446-1.272 3.301-1.272.562 0 1.341.321 1.341.917 0 1.432-1.788 2.561-6.934 4.429zM20.673 11.97c3.028-1.114 5.962-3.762 9.944-4.02 2.922-.189 7.088 2.289 10.051-.47 2.687-2.504-1.642-4.836-1.35-5.475.218-.487.896-.556 2.261-.599 2.446-.063 5.392 1.017 8.515 1.086 3.959.083 7.746-2.891 8.687-4.61 1.031-1.851-.172-3.275-3.896-4.309-1.765-.487-3.381-.902-3.455-1.261-.121-.533.154-1.372 3.684-2.412 3.221-.951 8.618.816 12.664.341 3.913-.458 10.973-4.323 11.19-7.412.372-5.243-7.604-4.406-9.271-4.547-1.231-.1-1.713.078-1.965-.45-.229-.496 1.483-1.891 5.042-3.14 3.335-1.163 8.687-1.028 12.045-1.879 3.202-.802 8.073-3.641 8.491-6.008.47-2.627-1.873-3.725-4.716-4.24-2.606-.476-5.014.103-5.495-.229-.47-.341-.143-1.252 1.513-2.441 1.604-1.152 3.828-1.456 6.412-2.613 2.985-1.338 5.713-3.865 5.977-5.226.39-1.937-1.238-3.57-3.667-4.12-2.092-.476-5.387.716-6.034.287-.532-.341.189-1.301 1.243-2.206 1.376-1.172 3.484-2.604 4.791-3.914 1.695-1.708 3.002-3.876 1.639-6.489-1.055-2.023-4.172-.65-5.421-1.501-.584-.393-1.227-1.045-.63-2.928.354-1.115 2.057-4.607 2.085-6.914.029-2.028-1.713-3.349-1.833-3.449v-.006s-1.685-1.579-3.759-1.126c-2.258.487-5.341 2.845-6.366 3.415-1.73.957-2.39.281-2.894-.206-1.077-1.054-1.329-4.962-3.529-5.598-2.819-.808-4.699.899-6.028 2.899-1.025 1.538-2.012 3.896-2.888 5.463-.677 1.22-1.479 2.111-1.914 1.659-.55-.55-.034-4.02-.911-5.974-1.025-2.269-2.945-3.544-4.762-2.785-1.289.533-3.518 3.467-4.24 6.647-.618 2.765-.476 5-1.289 6.807-.842 1.854-1.667 2.352-2.097 1.954-.419-.393-.327-2.871-1.312-5.34-1.065-2.676-2.607-4.753-5.083-3.773-2.246.874-4.054 6.22-4.217 9.518-.166 3.455 1.025 8.678.55 12.17-.521 3.748-1.55 5.701-2.077 5.572-.57-.14-.493-.65-.84-1.836-.47-1.607-1.232-9.598-6.289-8.191-2.982.834-5.375 8.515-5.048 12.44.341 4.065 3.134 9.007 2.842 12.351-.324 3.662-1.097 4.088-1.639 4.088-.364 0-1.086-1.507-1.917-3.143-1.75-3.438-3.387-4.338-5-2.965-1.49 1.269-3.363 5.816-2.501 9.678.676 3.057 2.771 6.094 3.18 8.506.235 1.344.306 2.031-.129 2.335-.567.413-3.713-3.372-5.632-.247-2.111 3.453 1.579 7.417 1.965 10.317.542 3.965-1.473 7.357-1.965 10.543-.404 2.653.341 3.925.94 4.518-1.181 1.55-5.616 7.329-6.578 8.601-1.209 1.593-4.125 5.42-4.125 5.42s.441.551 1.192 1.101c.386.283 1.291.816 1.291.816s1.301-2.292 4.054-6.303c1.977-2.874 4.911-6.887 5.874-8.208.698.458 2.105.957 4.64.031zm5.352-16.425c-.407-1.965-1.556-7.34-3.088-12.689l.882-.301c1.318 4.578 2.667 9.512 3.166 11.741 1.192-1.556 2.484-3.232 3.891-5.057a323.975 323.975 0 0 1 3.421-4.338c-.141-1.301-.464-4.492-.885-7.334-.928-6.312-1.636-10.655-1.642-10.701l.908-.16c.005.043.991 4.372 1.925 10.686.298 2.066.599 4.934.745 6.208 2.665-3.292 5.75-7.042 8.913-10.838-.08-3.65-.148-5.991-.298-9.575-.24-5.698-.733-13.514-.733-13.591l.929-.04c0 .083.67 7.827.951 13.531.126 2.665.298 5.839.332 8.249 2.831-3.39 5.673-6.765 8.263-9.827.092-2.928.327-10.75.218-17.955l.929.028c.148 6.26.177 13.173.091 16.454 4.355-5.157 7.816-9.194 8.996-10.555.155-1.808.43-6.409.637-9.506l.819-.023c-.126 2.381-.321 6.618-.35 8.237 6.91-7.979 11.89-13.6 12.016-13.749l.424.413c-.126.14-4.928 5.796-11.552 13.706 1.766-.464 4.71-1.109 7.249-1.871l.234.756c-3.982 1.197-8.755 2.676-8.812 2.687-2.75 3.292-5.775 6.905-8.893 10.649 2.188-.464 8.079-1.753 16.078-3.332l.218.902c-9.537 1.95-17.415 3.887-17.49 3.91l-.006-.023c-2.778 3.35-5.604 6.77-8.349 10.128 1.628-.301 4.562-.851 8.492-1.421 7.031-1.02 13.534-1.73 13.608-1.742l.132.914c-.08.011-7.93 1.14-13.562 2.014-5.942.914-9.644 1.63-9.85 1.67-3.123 3.816-6.114 7.466-8.784 10.815 1.148-.117 3.197-.258 6.71-.447 6.589-.353 10.818-.264 10.864-.264l.017.928c-.052 0-4.452.175-10.812.533-5.804.324-7.578.587-7.83.622a508.816 508.816 0 0 0-3.203 4.085c-1.427 1.831-2.722 3.518-3.925 5.085 2.189.054 5.991.206 11.835.705l-.094.909c-6.653-.51-11.443-.421-12.692-.41-8.062 10.526-10.896 14.692-10.924 14.74l-1.103-.939c.04-.057 2.985-4.154 10.984-14.617z"/></g></svg>